<svg width="10" height="13" viewBox="0 0 10 13" fill="none" xmlns="http://www.w3.org/2000/svg">
<path d="M6.15702 12.9167L0.833333 8.21992V7.05251H3.54165C4.33117 7.05251 5.03203 6.83825 5.64423 6.40975C6.25641 5.98123 6.59401 5.40814 6.65704 4.69049H0V3.63168H6.48719C6.28313 3.14752 5.91508 2.75045 5.38302 2.44049C4.85097 2.13053 4.23717 1.97556 3.54165 1.97556H0V0.916748H9.58329V1.97556H6.58648C6.88242 2.17556 7.14151 2.41922 7.36375 2.70655C7.58597 2.9939 7.73608 3.30227 7.81406 3.63168H9.58329V4.69049H7.91983C7.86215 5.6905 7.4081 6.51063 6.55767 7.15091C5.70724 7.79117 4.7019 8.1113 3.54165 8.1113H2.44867L7.89256 12.9167H6.15702Z" fill="#1C1B1F"/>
</svg>
