<svg width="22" height="21" viewBox="0 0 22 21" fill="none" xmlns="http://www.w3.org/2000/svg">
<path d="M2.191 20.9999H17.3288C17.9096 20.9994 18.4666 20.7729 18.8774 20.37C19.2883 19.9672 19.5193 19.4209 19.5198 18.8513V10.2566C19.5198 9.93293 19.2523 9.67063 18.9222 9.67063C18.5921 9.67063 18.3247 9.93293 18.3247 10.2566V18.8513C18.3245 19.1103 18.2194 19.3584 18.0327 19.5416C17.8459 19.7247 17.5929 19.8278 17.3288 19.828H2.19099C1.9269 19.8278 1.67385 19.7247 1.4871 19.5416C1.30036 19.3585 1.19526 19.1103 1.19508 18.8513V4.00597C1.19526 3.74698 1.30036 3.49882 1.4871 3.31567C1.67383 3.13255 1.9269 3.02947 2.19099 3.0293H10.955C11.285 3.0293 11.5525 2.76699 11.5525 2.4433C11.5525 2.1196 11.285 1.8573 10.955 1.8573H2.19099C1.61016 1.85782 1.05318 2.08437 0.642342 2.48723C0.231505 2.89009 0.000500798 3.43635 0 4.00596V18.8513C0.000533532 19.4209 0.231546 19.9671 0.642342 20.37C1.05314 20.7729 1.61016 20.9995 2.191 20.9999Z" fill="black"/>
<path d="M6.50569 11.1744L6.41232 13.2858C6.39507 13.6585 6.53432 14.0219 6.79734 14.2915C7.06037 14.5612 7.42439 14.7136 7.805 14.7133C7.82527 14.7133 7.84536 14.7129 7.86493 14.712L10.0186 14.6201C10.3673 14.6058 10.6979 14.4633 10.9444 14.2207L18.837 6.48019L20.8895 4.4681C21.2258 4.13848 21.4146 3.69133 21.4146 3.22494C21.4146 2.75859 21.2258 2.3114 20.8895 1.98177L19.3926 0.513269C19.0559 0.184515 18.6001 -0.000178461 18.1251 1.29396e-07C17.6499 1.29396e-07 17.1941 0.184694 16.8576 0.513804L14.8052 2.52625L6.91168 10.2672H6.9115C6.66519 10.5091 6.52025 10.8328 6.50549 11.1745L6.50569 11.1744ZM17.7026 1.34304H17.7024C17.9358 1.1144 18.3139 1.11422 18.5475 1.34269L20.0446 2.81119H20.0444C20.1564 2.92089 20.2194 3.06984 20.2194 3.22523C20.2194 3.38063 20.1565 3.52957 20.0444 3.63944L18.4143 5.23751L16.0725 2.94079L17.7026 1.34304ZM7.69941 11.2253H7.69923C7.70172 11.1765 7.72253 11.1303 7.75756 11.0956L15.2276 3.76936L17.5696 6.06607L10.0986 13.3927C10.0638 13.4273 10.0166 13.4473 9.96719 13.4492L7.81353 13.5412C7.75715 13.5464 7.70167 13.5253 7.66343 13.4843C7.6243 13.4456 7.60332 13.3924 7.60581 13.3378L7.69941 11.2253Z" fill="black"/>
</svg>
